<svg id="Capa_1" enable-background="new 0 0 512.002 512.002" height="512" viewBox="0 0 512.002 512.002" width="512" xmlns="http://www.w3.org/2000/svg"><g><g><g><g><path d="m63.927 483.414 165.915-165.915c4.884-4.884 4.884-12.803 0-17.687l-17.646-17.646c-4.884-4.884-12.803-4.884-17.687 0l-165.915 165.915z" fill="#fcc16d"/><g fill="#fca62f"><path d="m205.266 342.076 24.576-24.576c4.884-4.884 4.884-12.803 0-17.687l-17.646-17.646c-4.884-4.884-12.803-4.884-17.687 0l-24.648 24.648c11.839 11.716 23.607 23.503 35.405 35.261z"/><path d="m229.843 317.497-165.917 165.918-17.461-17.461 165.918-165.918c4.45-4.45 4.841-11.429 1.18-16.317.479.351.941.75 1.38 1.188l14.901 14.901c4.888 4.889 4.88 12.808-.001 17.689z"/></g></g><g><path d="m39.953 498.647-26.592-26.592c-7.815-7.815-7.815-20.485 0-28.3l5.601-5.601c4.884-4.884 12.803-4.884 17.687 0l37.204 37.204c4.884 4.884 4.884 12.803 0 17.687l-5.601 5.601c-7.814 7.816-20.484 7.816-28.299.001z" fill="#b9acac"/><path d="m73.854 493.04-5.607 5.607c-7.816 7.816-20.481 7.816-28.296 0l-20.201-20.202c7.816 7.816 20.481 7.816 28.296 0l5.607-5.607c4.881-4.881 4.881-12.792-.008-17.681l20.201 20.201c4.889 4.89 4.889 12.801.008 17.682z" fill="#9e9797"/></g><g><path d="m217.362 321.239-26.592-26.592c-7.815-7.815-7.815-20.485 0-28.3l14.445-14.445 54.892 54.892-14.445 14.445c-7.815 7.814-20.486 7.814-28.3 0z" fill="#9e9797"/><path d="m260.099 306.795-14.443 14.443c-7.814 7.814-20.483 7.814-28.296 0l-20.201-20.201c7.816 7.816 20.481 7.816 28.296 0l5.607-5.607c4.881-4.881 4.881-12.792-.008-17.681z" fill="#756f6f"/></g><g><path d="m425.206 113.395-26.592-26.592c-7.815-7.815-20.485-7.815-28.3 0l-14.445 14.445 54.892 54.892 14.445-14.445c7.815-7.816 7.815-20.486 0-28.3z" fill="#b9acac"/><path d="m410.762 156.132 14.443-14.443c7.814-7.814 7.814-20.483 0-28.296l-20.201-20.201c7.816 7.816 7.816 20.481 0 28.296l-5.607 5.607c-4.881 4.881-12.792 4.881-17.681-.008z" fill="#9e9797"/></g></g><g><path d="m497.758 235.475-221.225-221.225c-1.812-1.812-4.188-2.953-6.735-3.235l-31.079-3.438c-3.404-.377-6.794.814-9.215 3.235l-114.797 114.797c-2.421 2.421-3.612 5.812-3.235 9.215l3.438 31.079c.282 2.547 1.423 4.923 3.235 6.735l221.225 221.225c1.812 1.812 4.188 2.953 6.735 3.235l31.078 3.438c3.404.376 6.794-.814 9.215-3.235l114.797-114.797c2.421-2.421 3.612-5.812 3.235-9.215l-3.438-31.079c-.28-2.547-1.421-4.922-3.234-6.735z" fill="#f3eae6"/><path d="m500.993 242.21c-.282-2.547-1.423-4.923-3.235-6.735l-7.952-7.952c-12.052 11.96-24.105 23.918-36.143 35.893-40.898 40.682-81.72 81.44-122.521 122.219l8.228 8.228c1.812 1.812 4.188 2.953 6.735 3.235l31.078 3.438c3.404.376 6.794-.814 9.215-3.235l114.797-114.797c2.421-2.421 3.612-5.812 3.235-9.215z" fill="#e0d3ce"/><path d="m195.954 47.627h223.995v312.86h-223.995z" fill="#e0d3ce" transform="matrix(.707 -.707 .707 .707 -54.093 277.522)"/><path d="m293.822 283.901h223.995v36.048h-223.995z" fill="#cdbfbb" transform="matrix(.707 -.707 .707 .707 -94.631 375.389)"/></g><circle cx="307.952" cy="204.057" fill="#9e9797" r="84.29"/><path d="m367.548 263.659c-32.914 32.914-86.285 32.914-119.199 0-3.972-3.972-7.465-8.247-10.472-12.753 32.755 21.956 77.504 18.455 106.438-10.48 28.942-28.942 32.443-73.692 10.487-106.446 4.506 3.007 8.781 6.5 12.753 10.472 32.915 32.914 32.915 86.285-.007 119.207z" fill="#756f6f"/><circle cx="307.952" cy="204.057" fill="#fcc16d" r="51.075"/></g><g><path d="m511.886 272.464-3.438-31.079c-.467-4.225-2.38-8.207-5.386-11.214l-36.164-36.164c-2.929-2.929-7.678-2.929-10.606 0-2.929 2.929-2.929 7.678 0 10.606l30.861 30.861-147.783 147.783-210.618-210.619 147.781-147.781 156.194 156.194c1.464 1.464 3.384 2.197 5.303 2.197s3.839-.732 5.303-2.197c2.929-2.929 2.929-7.678 0-10.606l-18.135-18.135 5.318-5.311c10.718-10.731 10.717-28.184-.003-38.903l-26.6-26.6c-10.719-10.719-28.171-10.722-38.91.003l-5.304 5.311-77.863-77.864c-3.006-3.005-6.989-4.918-11.213-5.385l-31.079-3.438c-5.699-.631-11.29 1.333-15.343 5.386l-67.568 67.569c-2.929 2.929-2.929 7.678 0 10.606 2.929 2.929 7.678 2.929 10.606 0l67.568-67.569c.815-.816 1.943-1.209 3.088-1.083l24.536 2.714-140.79 140.79-2.714-24.536c-.127-1.147.268-2.272 1.083-3.088l23.665-23.665c2.929-2.929 2.929-7.678 0-10.606-2.929-2.929-7.678-2.929-10.606 0l-23.665 23.665c-4.053 4.053-6.016 9.646-5.386 15.343l3.438 31.078c.467 4.226 2.38 8.208 5.386 11.214l77.861 77.861-5.236 5.243c-7.202 7.202-9.558 17.442-7.083 26.643l-141.498 141.488c-2.779-1.42-5.869-2.185-9.08-2.185-5.344 0-10.368 2.081-14.146 5.86l-5.601 5.601c-5.197 5.196-8.059 12.105-8.059 19.453 0 7.349 2.862 14.257 8.058 19.453l26.592 26.592c5.364 5.364 12.407 8.045 19.453 8.045 7.044 0 14.09-2.682 19.453-8.044l5.602-5.601c6.274-6.275 7.491-15.71 3.672-23.223l141.49-141.502c2.354.633 4.774.958 7.195.958 7.044 0 14.087-2.68 19.445-8.038l5.246-5.24 77.861 77.861c3.006 3.006 6.989 4.919 11.214 5.387l31.078 3.438c.701.078 1.399.116 2.094.116 4.956 0 9.695-1.947 13.25-5.502l114.797-114.797c4.053-4.054 6.016-9.646 5.386-15.344zm-136.276-180.359c4.883-4.877 12.822-4.878 17.697-.003l26.6 26.6c4.875 4.875 4.874 12.813.003 17.69l-5.318 5.311-44.287-44.287zm-171.745 240.762-42.249-7.2 24.784-24.782 24.723 24.723zm-31.819 31.822c-.3-.091-.607-.171-.924-.225l-41.271-7.033 18.764-18.763 42.251 7.2zm-31.705 31.706-42.257-7.201 18.766-18.764c.012.002.023.006.035.008l42.218 7.194zm-31.825 31.828c-.314-.097-.633-.182-.966-.239l-41.231-7.026 18.804-18.803c.259.074.524.136.796.182l41.423 7.059zm-60.328 10.864 5.133-5.133c.039.007.077.019.116.026l42.141 7.181-22.656 22.659zm20.363 48.656-5.601 5.601c-4.878 4.878-12.815 4.878-17.693 0l-26.592-26.592c-2.363-2.363-3.665-5.505-3.665-8.847 0-3.341 1.301-6.483 3.665-8.846l5.601-5.601c.976-.976 2.258-1.464 3.54-1.464s2.564.488 3.541 1.464l37.204 37.204c1.951 1.952 1.951 5.129 0 7.081zm171.806-171.808c-4.875 4.875-12.814 4.873-17.694 0l-26.586-26.586c-4.877-4.883-4.878-12.822 0-17.7l5.233-5.24 44.29 44.29zm255.536-38.734-114.797 114.797c-.816.815-1.941 1.212-3.088 1.084l-24.536-2.714 140.79-140.79 2.714 24.536c.128 1.146-.268 2.272-1.083 3.087z"/><path d="m399.742 204.057c0-24.518-9.548-47.568-26.885-64.905-13.107-13.107-29.638-21.848-47.804-25.277-4.07-.77-7.993 1.908-8.761 5.979-.769 4.07 1.908 7.993 5.979 8.761 15.189 2.867 29.014 10.179 39.979 21.144 14.504 14.504 22.491 33.788 22.491 54.299 0 20.512-7.987 39.795-22.491 54.299s-33.788 22.491-54.299 22.491-39.795-7.987-54.299-22.491-22.491-33.787-22.491-54.299c0-20.511 7.987-39.795 22.491-54.299 10.508-10.508 23.733-17.694 38.246-20.781 4.051-.862 6.637-4.845 5.775-8.896-.862-4.052-4.846-6.637-8.896-5.775-17.355 3.692-33.168 12.284-45.731 24.846-17.337 17.337-26.885 40.387-26.885 64.905s9.548 47.569 26.885 64.905c17.337 17.337 40.387 26.885 64.905 26.885s47.568-9.548 64.905-26.885c17.338-17.338 26.886-40.388 26.886-64.906z"/><path d="m249.376 204.057c0 15.646 6.093 30.355 17.157 41.419 11.419 11.419 26.419 17.129 41.418 17.129s30-5.709 41.418-17.129c11.063-11.063 17.157-25.773 17.157-41.419s-6.093-30.355-17.157-41.418c-22.838-22.838-60-22.838-82.837 0-11.062 11.062-17.156 25.772-17.156 41.418zm58.576-43.575c11.639 0 22.582 4.533 30.812 12.763s12.763 19.173 12.763 30.812-4.533 22.582-12.763 30.813c-16.99 16.989-44.634 16.989-61.624 0-8.23-8.23-12.763-19.173-12.763-30.813s4.533-22.582 12.763-30.812 19.173-12.763 30.812-12.763z"/><path d="m446.735 242.128.083.083c1.466 1.475 3.392 2.212 5.319 2.212 1.912 0 3.825-.727 5.288-2.181 2.938-2.92 2.952-7.669.031-10.606l-.083-.083c-2.92-2.938-7.669-2.951-10.606-.031-2.938 2.92-2.952 7.669-.032 10.606z"/><path d="m332.106 346.183c-2.946 2.912-2.974 7.66-.063 10.606l.082.083c1.467 1.484 3.4 2.228 5.335 2.228 1.904 0 3.81-.721 5.271-2.166 2.946-2.912 2.974-7.66.063-10.606l-.082-.083c-2.91-2.945-7.659-2.974-10.606-.062z"/><path d="m275.167 67.455c1.912 0 3.825-.727 5.288-2.181 2.938-2.92 2.952-7.669.031-10.606l-.083-.083c-2.92-2.938-7.669-2.951-10.606-.031-2.938 2.92-2.952 7.669-.031 10.606l.083.083c1.465 1.474 3.392 2.212 5.318 2.212z"/><path d="m155.121 169.229c-2.938 2.92-2.952 7.669-.031 10.606l.083.083c1.466 1.475 3.392 2.212 5.319 2.212 1.912 0 3.825-.727 5.288-2.181 2.938-2.92 2.952-7.669.031-10.606l-.083-.083c-2.92-2.937-7.669-2.951-10.607-.031z"/><path d="m318.719 200.926c2.03 0 4.053-.819 5.532-2.434l.192-.209c2.798-3.055 2.59-7.799-.464-10.597-3.054-2.797-7.798-2.59-10.597.464l-.192.209c-2.798 3.055-2.59 7.799.464 10.597 1.441 1.319 3.255 1.97 5.065 1.97z"/><path d="m296.988 222.467c2.027 0 4.047-.817 5.526-2.427l.192-.209c2.801-3.051 2.599-7.795-.452-10.597s-7.795-2.599-10.597.452l-.192.209c-2.801 3.051-2.599 7.795.452 10.597 1.441 1.322 3.259 1.975 5.071 1.975z"/><path d="m313.84 220.59c1.437 1.304 3.24 1.946 5.038 1.946 2.042 0 4.076-.829 5.556-2.459 2.784-3.067 2.554-7.811-.513-10.594l-.206-.187c-3.068-2.784-7.811-2.554-10.594.513-2.784 3.067-2.554 7.811.513 10.594z"/><path d="m292.188 198.888c1.437 1.304 3.24 1.946 5.038 1.946 2.042 0 4.076-.829 5.556-2.459 2.784-3.067 2.554-7.811-.513-10.594l-.206-.187c-3.068-2.784-7.811-2.554-10.594.513-2.784 3.067-2.554 7.811.513 10.594z"/></g></g></svg>