<svg id="Capa_1" enable-background="new 0 0 512 512" height="512" viewBox="0 0 512 512" width="512" xmlns="http://www.w3.org/2000/svg"><g><g><path d="m380.074 136.309c3.603-5.809 5.685-12.662 5.685-20 0-14.64-8.28-27.35-20.41-33.69-12.13 6.34-20.41 19.05-20.41 33.69 0 7.338 2.082 14.191 5.685 20z" fill="#ffd1bf"/><g fill="#ffd1bf"><path d="m444.137 170.912c6.655-1.56 12.973-4.934 18.162-10.123 10.352-10.352 13.485-25.194 9.39-38.254-13.06-4.094-27.902-.962-38.254 9.39-5.189 5.189-8.562 11.506-10.123 18.162z"/><path d="m286.561 170.912c-6.655-1.56-12.973-4.934-18.162-10.123-10.352-10.352-13.485-25.194-9.39-38.254 13.06-4.094 27.902-.962 38.254 9.39 5.189 5.189 8.562 11.506 10.123 18.162z"/></g><g><path d="m318.553 267.131v-23.358c0-25.804 20.993-46.796 46.796-46.796s46.796 20.992 46.796 46.796v23.358h75v-23.358c0-67.158-54.638-121.796-121.796-121.796-67.159 0-121.796 54.638-121.796 121.796v23.358z" fill="#fc7d4b"/></g><g><path d="m487.14 243.77v23.36h-43.52v-23.36c0-59.73-43.22-109.55-100.03-119.84 7.06-1.28 14.33-1.95 21.76-1.95 67.16 0 121.79 54.63 121.79 121.79z" fill="#fb6a3b"/></g></g><path d="m504.5 327.414v-103.003c-31.064 0-31.064 12-62.129 12s-31.064-12-62.129-12c-31.063 0-31.063 12-62.126 12-31.062 0-31.062-12-62.124-12-31.061 0-31.061 12-62.122 12-31.062 0-31.062-12-62.124-12s-31.062 12-62.125 12c-31.061 0-31.061-12-62.122-12v103.003z" fill="#b5dbfd"/><g><path d="m178.648 375.172c-63.391-29.921-104.521-73.553-122.247-129.682-30.959-98.034 23.999-196.217 26.354-200.349l65.16 37.137.062-.109c-.414.738-41.183 74.631-19.935 141.123 11.252 35.211 39.049 63.491 82.619 84.057z" fill="#fc7d4b"/></g><path d="m147.92 82.28c-.86 1.57-10.18 18.89-17.42 43.67h-2.73c-7.92 0-14.98-3.7-19.56-9.46l-7.46 13.56c-2.2 3.99-5.4 7.23-9.18 9.46-3.79 2.24-8.17 3.48-12.72 3.48-8.56 0-16.42-4.3-21.04-11.5-1.3-2.03-2.85-3.8-4.64-5.3 9.87-45.9 28.24-78.7 29.58-81.05z" fill="#fb6a3b"/><g><path d="m210.66 307.35-11.02 23.35c-53.33-25.62-87.41-60.65-101.3-104.13-20.41-63.86 4.95-133.17 18.02-162.28l31.56 17.99c-1.8 3.28-40.75 75.71-19.88 141.01 11.25 35.21 39.05 63.49 82.62 84.06z" fill="#fb6a3b"/></g><path d="m504.5 438.414v-154.003c-31.064 0-31.064 12-62.129 12s-31.064-12-62.129-12c-31.063 0-31.063 12-62.126 12-31.062 0-31.062-12-62.124-12-31.061 0-31.061 12-62.122 12-31.062 0-31.062-12-62.124-12s-31.062 12-62.125 12c-31.061 0-31.061-12-62.122-12v154.003z" fill="#64b9fc"/><g><path d="m78.738 33.101h-41.023c-4.038 0-6.382 4.518-4.105 7.854 7.258 10.634 16.287 30.64 1.031 51.048-2.358 3.154-.354 7.653 3.569 7.989 10.571.906 26.405 5.065 36.433 20.698 2.045 3.189 6.756 3.033 8.583-.286l30.447-55.31z" fill="#ffc5b0"/><path d="m246.553 84.343v3.376c0 10.067-8.161 18.228-18.228 18.228h-100.56c-2.761 0-5-2.239-5-5v-21.345l-41.672-25.977c-1.465-.913-2.355-2.517-2.355-4.243v-19.233c0-3.091 2.777-5.442 5.825-4.931l130.416 21.828c18.223 3.05 31.574 18.821 31.574 37.297z" fill="#fb946d"/><path d="m246.55 84.34v3.38c0 10.07-8.16 18.23-18.23 18.23h-38.12c11.3 0 20.46-9.16 20.46-20.46v-3.79c0-18.42-11.82-34.45-28.81-40.2l33.13 5.55c18.22 3.05 31.57 18.82 31.57 37.29z" fill="#fc7d4b"/></g><g><g fill="#ffd1bf"><path d="m270.725 370.743c3.603-5.809 5.685-12.662 5.685-20 0-14.64-8.28-27.35-20.41-33.69-12.13 6.34-20.41 19.05-20.41 33.69 0 7.338 2.082 14.191 5.685 20z"/><g><path d="m334.788 405.346c6.655-1.56 12.973-4.934 18.162-10.123 10.352-10.352 13.485-25.194 9.39-38.254-13.06-4.094-27.902-.962-38.254 9.39-5.189 5.189-8.562 11.506-10.123 18.162z"/><path d="m177.212 405.346c-6.655-1.56-12.973-4.934-18.162-10.123-10.352-10.352-13.485-25.194-9.39-38.254 13.06-4.094 27.902-.962 38.254 9.39 5.189 5.189 8.562 11.506 10.123 18.162z"/></g></g><g><path d="m210.733 466.42c5.238-20.114 23.536-35.009 45.267-35.009s40.029 14.896 45.266 35.009h75.946c-5.948-61.647-58.031-110.009-121.212-110.009s-115.264 48.362-121.212 110.009z" fill="#fc7d4b"/><path d="m377.21 466.42h-48.34c-5.16-53.58-45.18-97.12-97.04-107.59 7.81-1.59 15.9-2.42 24.17-2.42 63.18 0 115.26 48.36 121.21 110.01z" fill="#fb6a3b"/></g></g><path d="m504.5 482.351c-31.064 0-31.064 12-62.129 12s-31.064-12-62.129-12c-31.063 0-31.063 12-62.126 12-31.062 0-31.062-12-62.124-12-31.061 0-31.061 12-62.121 12-31.062 0-31.062-12-62.124-12s-31.062 12-62.125 12c-31.061 0-31.061-12-62.122-12v-65.941c31.061 0 31.061 12 62.122 12 31.062 0 31.062-12 62.125-12 31.062 0 31.062 12 62.124 12 31.061 0 31.061-12 62.121-12 31.062 0 31.062 12 62.124 12 31.063 0 31.063-12 62.126-12 31.065 0 31.065 12 62.129 12s31.065-12 62.129-12z" fill="#31a7fb"/><g><path d="m147.676 53.226c-4.095-.621-7.921 2.187-8.547 6.28-.626 4.095 2.185 7.921 6.28 8.548l6.033.923c.384.059.766.087 1.143.087 3.641 0 6.837-2.657 7.404-6.367.626-4.095-2.185-7.921-6.28-8.548z"/><path d="m504.5 276.911c-16.931 0-25.875 3.455-33.767 6.504-7.317 2.826-14.228 5.496-28.362 5.496s-21.045-2.67-28.362-5.496c-7.892-3.049-16.836-6.504-33.767-6.504-16.93 0-25.875 3.455-33.766 6.504-7.316 2.826-14.227 5.496-28.36 5.496s-21.043-2.67-28.359-5.496c-7.891-3.049-16.835-6.504-33.765-6.504-16.929 0-25.873 3.455-33.764 6.504-7.315 2.826-14.226 5.496-28.357 5.496-.575 0-1.12-.011-1.672-.02-.135-.097-.268-.196-.411-.286-24.858-15.479-42.394-34.407-52.291-56.382 9.186.78 14.775 2.93 20.609 5.184 7.891 3.049 16.835 6.504 33.765 6.504 16.929 0 25.873-3.455 33.763-6.504 7.316-2.826 14.226-5.496 28.358-5.496 14.133 0 21.043 2.67 28.359 5.496 7.891 3.049 16.835 6.504 33.765 6.504s25.875-3.455 33.766-6.504c7.316-2.826 14.227-5.496 28.36-5.496 14.134 0 21.045 2.67 28.362 5.496 7.892 3.049 16.836 6.504 33.767 6.504s25.875-3.455 33.767-6.504c7.317-2.826 14.228-5.496 28.362-5.496 4.142 0 7.5-3.357 7.5-7.5s-3.358-7.5-7.5-7.5c-4.76 0-8.871.28-12.523.74-3.911-18.978-12.099-36.805-23.808-52.165 11.574-11.998 15.678-29.226 10.678-45.188-.734-2.344-2.568-4.179-4.911-4.914-16.228-5.095-33.78-.787-45.832 11.264-.888.896-1.717 1.824-2.514 2.765-10.207-5.385-21.091-9.378-32.356-11.874.011-.408.026-.813.026-1.229 0-17.003-9.363-32.46-24.436-40.337-2.177-1.139-4.771-1.139-6.948 0-15.073 7.878-24.436 23.334-24.436 40.337 0 .417.015.822.026 1.23-11.262 2.497-22.148 6.49-32.355 11.874-.816-.959-1.658-1.898-2.545-2.785-12.02-12.032-29.571-16.341-45.802-11.244-2.341.734-4.174 2.568-4.909 4.909-5.009 15.957-.906 33.185 10.672 45.189-11.866 15.564-20.123 33.678-23.974 52.943-6.722 1.289-11.71 3.206-16.325 4.989-7.315 2.826-14.226 5.496-28.357 5.496-14.133 0-21.043-2.67-28.359-5.496-7.535-2.911-16.047-6.185-31.536-6.475-10.297-36.868-1.539-75.805 8.498-103.492h21.149c4.142 0 7.5-3.357 7.5-7.5s-3.358-7.5-7.5-7.5h-33.356v-18.846c0-2.589-1.335-4.995-3.532-6.364l-40.497-25.243v-14.892l127.503 21.34c14.666 2.454 25.311 15.029 25.311 29.899v3.376c0 5.916-4.813 10.729-10.729 10.729h-31.379c-4.142 0-7.5 3.357-7.5 7.5s3.358 7.5 7.5 7.5h31.379c14.187 0 25.729-11.542 25.729-25.729v-3.376c0-22.229-15.912-41.024-37.835-44.694l-130.414-21.826c-3.633-.609-7.329.406-10.14 2.786-1.606 1.359-2.805 3.084-3.551 4.993h-34.397c-4.643 0-8.873 2.548-11.039 6.648-2.177 4.121-1.893 9.076.739 12.933 7.155 10.483 13.174 26.338 1.219 42.33-2.724 3.643-3.262 8.479-1.404 12.621 1.855 4.136 5.817 6.944 10.339 7.332 3.583.307 7.671 1.02 11.814 2.474-4.51 16.948-7.532 33.826-8.951 50.224-.357 4.127 2.699 7.762 6.826 8.118.22.02.438.028.655.028 3.85 0 7.125-2.947 7.464-6.854 1.227-14.174 3.72-28.752 7.401-43.434 2.002 1.902 3.881 4.112 5.553 6.718 2.324 3.623 6.226 5.75 10.504 5.75.144 0 .29-.002.435-.007 4.446-.149 8.381-2.565 10.526-6.462l23.006-41.793 2.464 1.536v17.182c0 6.497 4.983 11.847 11.327 12.441-10.409 30.606-18.412 72.39-5.695 112.187 6.524 20.416 18.285 38.65 35.085 54.491-6.064-1.78-13.561-3.155-24.237-3.155-16.93 0-25.874 3.455-33.765 6.504-4.186 1.617-8.245 3.18-13.594 4.224-8.836-13.708-15.853-28.634-20.835-44.408-4.934-15.624-7.888-32.314-8.781-49.607-.214-4.137-3.739-7.311-7.877-7.104-4.137.214-7.317 3.74-7.104 7.877.524 10.156 1.738 20.119 3.579 29.826-.7-.266-1.4-.535-2.108-.809-7.891-3.049-16.834-6.504-33.763-6.504-4.142 0-7.5 3.357-7.5 7.5s3.358 7.5 7.5 7.5c14.131 0 21.042 2.67 28.357 5.496 3.497 1.351 7.107 2.741 11.478 3.897.604 2.165 1.242 4.314 1.914 6.444 4.563 14.447 10.721 28.236 18.305 41.137-12.748-.249-19.343-2.788-26.29-5.471-7.891-3.049-16.835-6.504-33.764-6.504-4.142 0-7.5 3.357-7.5 7.5s3.358 7.5 7.5 7.5c14.132 0 21.042 2.67 28.358 5.496 7.891 3.049 16.835 6.504 33.764 6.504s25.874-3.455 33.765-6.504c7.316-2.826 14.227-5.496 28.36-5.496s21.043 2.67 28.359 5.496c7.891 3.049 16.835 6.504 33.764 6.504s25.873-3.455 33.763-6.504c7.316-2.826 14.226-5.496 28.358-5.496 14.133 0 21.043 2.67 28.359 5.496 7.891 3.049 16.835 6.504 33.765 6.504s25.874-3.455 33.766-6.504c7.316-2.826 14.228-5.496 28.361-5.496 14.134 0 21.045 2.67 28.362 5.496 7.892 3.049 16.836 6.504 33.767 6.504s25.875-3.455 33.767-6.504c7.317-2.826 14.228-5.496 28.362-5.496 4.142 0 7.5-3.357 7.5-7.5s-3.356-7.496-7.498-7.496zm-158.023-53.496c-5.081 1.962-9.972 3.847-17.215 4.818 6.117-14.131 20.228-23.752 36.089-23.752 11.501 0 22.228 5.104 29.568 13.471-4.164-.64-8.956-1.04-14.676-1.04-16.93-.001-25.875 3.454-33.766 6.503zm92.256-86.182c7.096-7.097 17.059-10.181 26.757-8.498 1.57 9.061-1.02 18.344-7.144 25.307-2.78-2.882-5.697-5.647-8.754-8.278-3.508-3.02-7.164-5.832-10.945-8.439.03-.03.057-.062.086-.092zm-73.383-45.849c7.734 5.447 12.509 14.179 12.874 23.749-4.263-.428-8.558-.653-12.874-.653-4.315 0-8.611.225-12.875.654.365-9.57 5.141-18.302 12.875-23.75zm-100.144 37.351c9.703-1.683 19.661 1.4 26.75 8.498.032.032.06.065.091.097-3.578 2.467-7.047 5.115-10.381 7.952-3.26 2.773-6.363 5.702-9.314 8.76-6.128-6.966-8.72-16.25-7.146-25.307zm100.144.745c53.981 0 101.309 39.021 111.993 91.505-2.36.791-4.525 1.624-6.61 2.429-7.317 2.826-14.228 5.496-28.362 5.496-12.871 0-19.752-2.215-26.405-4.745-8.076-20.783-28.291-34.685-50.616-34.685-24.265 0-45.569 16.299-52.19 39.311-10.903-.548-16.998-2.902-23.404-5.377-7.891-3.049-16.835-6.504-33.765-6.504-.604 0-1.176.014-1.761.022 12.261-51.099 57.857-87.452 111.12-87.452zm-286.755-16.216c-8.349-10.976-20.741-18.037-35.549-20.252 10.047-15.914 9.772-34.617-.771-52.411h28.964v5.523h-5.146c-4.142 0-7.5 3.357-7.5 7.5s3.358 7.5 7.5 7.5h11.021l-15.933 13.809c-3.13 2.713-3.468 7.45-.755 10.58 1.483 1.711 3.571 2.588 5.671 2.588 1.741 0 3.49-.603 4.909-1.832l20.198-17.505 8.851 5.518z"/><path d="m504.5 408.911c-16.931 0-25.875 3.455-33.767 6.504-7.317 2.826-14.228 5.496-28.362 5.496s-21.045-2.67-28.362-5.496c-7.892-3.049-16.836-6.504-33.767-6.504-5.645 0-10.387.39-14.513 1.015-2.15-3.444-4.459-6.781-6.917-10.001 11.578-11.999 15.685-29.23 10.685-45.196-.734-2.346-2.571-4.182-4.916-4.916-16.228-5.081-33.776-.773-45.794 11.243-.903.903-1.737 1.837-2.535 2.778-10.214-5.397-21.113-9.372-32.363-11.86.011-.406.022-.809.022-1.234 0-17.002-9.363-32.458-24.436-40.337-2.177-1.139-4.772-1.139-6.949 0-15.072 7.879-24.436 23.335-24.436 40.337 0 .425.011.829.022 1.234-11.251 2.488-22.15 6.463-32.364 11.86-.798-.942-1.632-1.875-2.535-2.778-12.019-12.018-29.567-16.325-45.794-11.243-2.345.734-4.182 2.57-4.916 4.916-5 15.966-.894 33.198 10.685 45.196-2.458 3.22-4.768 6.558-6.918 10.003-4.128-.626-8.874-1.016-14.523-1.016-16.93 0-25.874 3.455-33.765 6.504-7.316 2.826-14.227 5.496-28.359 5.496s-21.042-2.67-28.358-5.496c-7.891-3.049-16.835-6.504-33.764-6.504-4.142 0-7.5 3.357-7.5 7.5s3.358 7.5 7.5 7.5c14.132 0 21.042 2.67 28.358 5.496 7.891 3.049 16.835 6.504 33.764 6.504s25.874-3.455 33.765-6.504c7.316-2.826 14.227-5.496 28.36-5.496s21.043 2.67 28.359 5.496c7.891 3.049 16.835 6.504 33.764 6.504s25.875-3.455 33.769-6.503c4.243-1.639 8.25-3.187 13.479-4.214 4.064-.799 6.711-4.741 5.913-8.806-.799-4.064-4.742-6.705-8.806-5.913-6.516 1.281-11.332 3.141-15.99 4.939-7.319 2.826-14.231 5.496-28.365 5.496-14.132 0-21.042-2.67-28.359-5.496-1.275-.492-2.583-.995-3.942-1.492 21.381-31.416 56.267-50.011 94.431-50.011 38.163 0 73.048 18.594 94.428 50.008-1.363.499-2.674 1.002-3.952 1.496-7.316 2.826-14.227 5.496-28.36 5.496-14.135 0-21.05-2.67-28.37-5.496-4.468-1.725-9.088-3.509-15.225-4.783-4.055-.849-8.026 1.763-8.869 5.816-.843 4.056 1.762 8.026 5.817 8.869 4.933 1.025 8.79 2.515 12.874 4.092 7.895 3.048 16.842 6.502 33.772 6.502s25.874-3.455 33.766-6.504c7.316-2.826 14.228-5.496 28.361-5.496 14.134 0 21.045 2.67 28.362 5.496 7.892 3.049 16.836 6.504 33.767 6.504s25.875-3.455 33.767-6.504c7.317-2.826 14.228-5.496 28.362-5.496 4.142 0 7.5-3.357 7.5-7.5s-3.359-7.501-7.501-7.501zm-341.491-20.432c-6.127-6.961-8.72-16.247-7.15-25.311 9.703-1.68 19.661 1.406 26.748 8.494.034.034.064.069.097.103-7.101 4.91-13.707 10.51-19.695 16.714zm80.117-38.92c.366-9.567 5.142-18.297 12.874-23.745 7.733 5.448 12.509 14.178 12.874 23.745-4.268-.428-8.565-.648-12.874-.648s-8.606.22-12.874.648zm86.169 22.207c.034-.034.064-.069.098-.104 7.088-7.089 17.048-10.175 26.748-8.494 1.569 9.062-1.023 18.346-7.151 25.311-5.988-6.204-12.593-11.804-19.695-16.713z"/><path d="m76.354 183.84h-.104c-4.142 0-7.5 3.357-7.5 7.5s3.358 7.5 7.5 7.5h.104c4.142 0 7.5-3.357 7.5-7.5s-3.358-7.5-7.5-7.5z"/><path d="m88.541 217.657h.104c4.142 0 7.5-3.357 7.5-7.5s-3.358-7.5-7.5-7.5h-.104c-4.142 0-7.5 3.357-7.5 7.5s3.358 7.5 7.5 7.5z"/><path d="m218.461 389.647c-4.142 0-7.5 3.357-7.5 7.5s3.358 7.5 7.5 7.5h.104c4.142 0 7.5-3.357 7.5-7.5s-3.358-7.5-7.5-7.5z"/><path d="m321.649 184.888.104.001h.072c4.109 0 7.459-3.312 7.498-7.43.039-4.142-3.287-7.531-7.429-7.57l-.104-.001c-.024 0-.048 0-.072 0-4.109 0-7.459 3.312-7.498 7.43-.038 4.142 3.287 7.531 7.429 7.57z"/><path d="m295.566 194.251h.104c4.142 0 7.5-3.357 7.5-7.5s-3.358-7.5-7.5-7.5h-.104c-4.142 0-7.5 3.357-7.5 7.5s3.358 7.5 7.5 7.5z"/><path d="m412.351 194.251h.104c4.142 0 7.5-3.357 7.5-7.5s-3.358-7.5-7.5-7.5h-.104c-4.142 0-7.5 3.357-7.5 7.5s3.357 7.5 7.5 7.5z"/></g></g></svg>