<svg id="Capa_1" enable-background="new 0 0 512 512" height="512" viewBox="0 0 512 512" width="512" xmlns="http://www.w3.org/2000/svg"><g><path d="m262.73 359.203h-26.035v-302.15c0-5.523 4.477-10 10-10h6.035c5.523 0 10 4.477 10 10z" fill="#9e9797"/><path d="m236.694 257.72h26.035v35.667h-26.035z" fill="#756f6f"/><path d="m504.5 348.786v.826c0 63.698-51.637 115.335-115.335 115.335h-231.17c-63.698 0-115.335-51.637-115.335-115.335v-102.475h-10.84c-6.72 0-12.8-2.72-17.2-7.12-4.503-4.503-7.247-10.767-7.115-17.664.254-13.337 11.527-23.846 24.866-23.846h13.921c3.129 0 6.079 1.465 7.969 3.959l23.317 30.759c1.225 1.616 1.93 3.567 2.021 5.593l1.99 44.391c2.231 49.774 42.29 90.089 92.1 91.279.788.019 188.411.028 188.411.028 3.36 0 6.96-.45 10.69-1.25 34.46-7.32 56.97-40.64 51.94-75.5l-18.73-129.649c-1.41-9.69-6.82-18.49-15.17-23.62-5.21-3.21-9.03-8.6-10.02-15.12-1.14-7.46 1.67-14.6 6.88-19.3 2.97-2.69 5.28-5.96 6.84-9.57 1.55-3.6 2.37-7.54 2.37-11.54 0-3.54 4.15-5.44 6.83-3.13l22.99 19.86h12.57c2.56 0 4.96 1.3 6.35 3.46l6.03 9.34h27.17c12.29 0 22.25 9.96 22.25 22.24v7.24c0 4.175-3.385 7.56-7.56 7.56h-23.327c-9.038 0-15.354 8.947-12.328 17.463l31.698 89.201c9.879 27.799 14.927 57.083 14.927 86.585z" fill="#ba7c65"/><g fill="#a96a53"><path d="m390.83 144.497c8.35 5.13 13.76 13.93 15.17 23.62l16.412 113.602h73.219c-1.763-6.574-3.772-13.088-6.057-19.518l-31.698-89.201c-3.026-8.517 3.289-17.464 12.328-17.464h23.327c4.175 0 7.56-3.385 7.56-7.56v-7.24c0-12.28-9.96-22.24-22.25-22.24h-27.17l-6.03-9.34c-1.39-2.16-3.79-3.46-6.35-3.46h-12.57l-22.99-19.86c-2.68-2.31-6.83-.41-6.83 3.13 0 4-.82 7.94-2.37 11.54-1.56 3.61-3.87 6.88-6.84 9.57-5.21 4.7-8.02 11.84-6.88 19.3.989 6.521 4.809 11.911 10.019 15.121z"/><path d="m414.83 374.216c0 33.61-27.35 60.96-60.96 60.96-15.75 0-30.13-6.01-40.95-15.85-10.83 9.84-25.21 15.85-40.96 15.85s-30.13-6.01-40.96-15.85c-10.83 9.84-25.21 15.85-40.96 15.85-33.61 0-60.96-27.35-60.96-60.96 0-4 .39-7.91 1.13-11.69 12.92 7.28 27.71 11.58 43.48 11.96.79.02 188.41.03 188.41.03 3.36 0 6.96-.45 10.69-1.25 15.18-3.22 28.04-11.49 37.25-22.72 3.08 7.28 4.79 15.28 4.79 23.67z"/><path d="m504.5 348.786v.83c0 63.69-51.64 115.33-115.34 115.33h-32.47c63.7 0 115.33-51.64 115.33-115.33v-.83c0-29.5-5.05-58.79-14.92-86.58l-31.7-89.21c-3.03-8.51 3.29-17.46 12.33-17.46h23.32c4.18 0 7.56-3.38 7.56-7.56v-7.24c0-12.28-9.96-22.24-22.25-22.24h-27.17l-6.03-9.34c-1.39-2.16-3.79-3.46-6.35-3.46h-12.57l-1.68-1.45c.76-1.2 1.41-2.45 1.97-3.74 1.55-3.6 2.37-7.54 2.37-11.54 0-3.54 4.15-5.44 6.83-3.13l22.99 19.86h12.57c2.56 0 4.96 1.3 6.35 3.46l6.03 9.34h27.17c12.29 0 22.25 9.96 22.25 22.24v7.24c0 4.18-3.38 7.56-7.56 7.56h-23.33c-9.04 0-15.35 8.95-12.32 17.46l31.69 89.21c9.88 27.79 14.93 57.08 14.93 86.58z"/></g><path d="m501.09 140.736v7.24c0 4.18-3.38 7.56-7.56 7.56h-23.33c-9.04 0-15.35 8.95-12.32 17.46l27.14 76.39h-67.28l-11.74-81.27c-1.41-9.69-6.82-18.49-15.17-23.62-5.21-3.21-9.03-8.6-10.02-15.12-1.14-7.46 1.67-14.6 6.88-19.3 1.91-1.73 3.54-3.69 4.87-5.83.43-.67.82-1.36 1.18-2.07.1-.2.2-.4.29-.6.18-.35.34-.71.5-1.07 1.55-3.6 2.37-7.54 2.37-11.54 0-3.54 4.15-5.44 6.83-3.13l22.99 19.86h12.57c2.56 0 4.96 1.3 6.35 3.46l6.03 9.34h27.17c12.29 0 22.25 9.96 22.25 22.24z" fill="#fcc16d"/><path d="m501.09 140.736v7.24c0 4.18-3.38 7.56-7.56 7.56h-23.33c-9.04 0-15.35 8.95-12.32 17.46l27.14 76.39h-32.48l-27.14-76.39c-3.03-8.51 3.29-17.46 12.33-17.46h23.32c4.18 0 7.56-3.38 7.56-7.56v-7.24c0-12.28-9.96-22.24-22.25-22.24h-27.17l-6.03-9.34c-1.39-2.16-3.79-3.46-6.35-3.46h-12.57l-1.68-1.45c.43-.67.82-1.36 1.18-2.07.1-.2.2-.4.29-.6.18-.35.34-.71.5-1.07 1.55-3.6 2.37-7.54 2.37-11.54 0-3.54 4.15-5.44 6.83-3.13l22.99 19.86h12.57c2.56 0 4.96 1.3 6.35 3.46l6.03 9.34h27.17c12.29 0 22.25 9.96 22.25 22.24z" fill="#fcb44d"/><path d="m488.45 259.056h-69.31l-7.13-49.34h58.91z" fill="#cdbfbb"/><path d="m488.45 259.056h-32.47l-17.53-49.34h32.47z" fill="#9e9797"/><g><g><circle cx="190.043" cy="374.218" fill="#faf7f7" r="40.957"/><circle cx="190.043" cy="374.218" fill="#64b9fc" r="17.624"/></g><g><circle cx="271.957" cy="374.218" fill="#faf7f7" r="40.957"/><circle cx="271.957" cy="374.218" fill="#64b9fc" r="17.624"/></g><g><circle cx="353.872" cy="374.218" fill="#faf7f7" r="40.957"/><circle cx="353.872" cy="374.218" fill="#64b9fc" r="17.624"/></g></g><g><path d="m333.342 81.18c4.318 0 8.146 2.766 9.502 6.866 8.222 24.865 13.134 56.298 13.134 90.482 0 32.903-4.551 63.256-12.224 87.659-1.31 4.166-5.176 6.994-9.543 6.994h-179.278c-6.635 0-11.43-6.338-9.617-12.72 6.633-23.354 10.512-51.557 10.512-81.933 0-31.504-4.172-60.671-11.262-84.515-1.905-6.406 2.901-12.832 9.585-12.832h179.191z" fill="#64b9fc"/><path d="m355.98 178.526c0 32.9-4.55 63.26-12.23 87.66-1.31 4.17-5.17 6.99-9.54 6.99h-28.78c4.36 0 8.23-2.82 9.54-6.99 7.67-24.4 12.22-54.76 12.22-87.66 0-34.18-4.91-65.62-13.13-90.48-1.36-4.1-5.19-6.87-9.5-6.87h28.78c4.32 0 8.15 2.77 9.5 6.87 8.23 24.86 13.14 56.3 13.14 90.48z" fill="#31a7fb"/><path d="m298.427 81.18c9.668 25.819 15.551 59.935 15.551 97.347 0 36.125-5.485 69.176-14.566 94.653h-116.15c9.081-25.477 14.566-58.528 14.566-94.653 0-37.412-5.883-71.528-15.551-97.347z" fill="#fb6a3b"/><path d="m259.427 81.18c9.668 25.819 15.551 59.935 15.551 97.347 0 36.125-5.485 69.176-14.566 94.653h-38.151c9.081-25.477 14.566-58.528 14.566-94.653 0-37.412-5.883-71.528-15.551-97.347z" fill="#faf7f7"/></g><path d="m493.5 279.484h-8.711c-4.098 0-7.782-2.501-9.294-6.31l-28.059-70.67c-2.607-6.565 2.23-13.69 9.294-13.69h8.711c4.098 0 7.782 2.501 9.294 6.31l28.059 70.67c2.607 6.565-2.23 13.69-9.294 13.69z" fill="#fddaa9"/><g><path d="m461.028 430.003c-19.784 17.698-45.305 27.444-71.863 27.444h-231.17c-59.46 0-107.835-48.375-107.835-107.836v-3.725h8.84c4.142 0 7.5-3.357 7.5-7.5s-3.358-7.5-7.5-7.5h-8.84v-21.725c0-4.143-3.358-7.5-7.5-7.5s-7.5 3.357-7.5 7.5v40.449c0 67.731 55.104 122.836 122.835 122.836h231.17c30.253 0 59.326-11.104 81.864-31.265 3.087-2.762 3.351-7.503.589-10.59-2.761-3.086-7.503-3.35-10.59-.588z"/><path d="m503.88 283.566c1.574-1.161 2.968-2.587 4.098-4.252 3.261-4.804 3.929-10.893 1.787-16.288l-28.059-70.67c-2.226-5.605-7.053-9.542-12.79-10.688l-3.973-11.18c-.615-1.731-.36-3.586.7-5.088 1.061-1.502 2.723-2.363 4.561-2.363h23.327c8.304 0 15.06-6.756 15.06-15.061v-7.239c0-16.398-13.346-29.74-29.75-29.74h-23.084l-3.808-5.898c-2.781-4.321-7.513-6.901-12.657-6.901h-9.779l-20.885-18.042c-3.489-3.006-8.257-3.682-12.442-1.765-4.186 1.918-6.786 5.97-6.786 10.576 0 2.938-.608 5.902-1.754 8.564-1.163 2.689-2.842 5.041-4.98 6.978-7.288 6.574-10.753 16.295-9.271 25.994 1.284 8.456 6.205 15.884 13.509 20.385 6.288 3.862 10.543 10.536 11.673 18.302l7.06 48.87-43.897-74.674c-2.094-20.849-6.057-40.4-11.776-57.696-2.376-7.184-9.057-12.011-16.623-12.011h-63.111v-16.626c0-9.649-7.851-17.5-17.5-17.5h-6.035c-9.649 0-17.5 7.851-17.5 17.5v16.627h-75.045c-5.581 0-10.694 2.564-14.03 7.036-3.332 4.467-4.332 10.093-2.744 15.435 4.618 15.529 7.823 32.89 9.525 51.246-.099.144-.2.286-.29.438l-59.106 99.865-.413-9.216c-.16-3.562-1.383-6.945-3.537-9.787l-23.318-30.762c-3.29-4.337-8.502-6.927-13.945-6.927h-13.921c-17.518 0-32.037 13.997-32.365 31.203-.167 8.731 3.14 16.939 9.311 23.111 6.008 6.007 14 9.315 22.503 9.315h3.34v21.201c0 4.143 3.358 7.5 7.5 7.5s7.5-3.357 7.5-7.5v-28.701c0-4.143-3.358-7.5-7.5-7.5h-10.84c-4.497 0-8.722-1.748-11.896-4.922-3.261-3.262-5.009-7.602-4.921-12.22.173-9.092 7.965-16.488 17.368-16.488h13.921c.778 0 1.523.37 1.992.989l23.317 30.76c.308.406.483.89.505 1.398l1.989 44.392c1.867 41.667 28.866 78.424 67.534 92.448.117 3.236.554 6.389 1.278 9.434h-49.24c-4.142 0-7.5 3.357-7.5 7.5s3.358 7.5 7.5 7.5h55.65c8.635 13.371 23.658 22.248 40.726 22.248 17.221 0 32.361-9.037 40.958-22.609 8.596 13.573 23.737 22.609 40.958 22.609s32.361-9.037 40.958-22.609c8.596 13.573 23.737 22.609 40.957 22.609 26.72 0 48.458-21.737 48.458-48.457 0-1.986-.134-3.94-.367-5.864 22.351-16.159 34.173-44.06 30.191-71.66l-4.354-30.143h35.698c.427 0 .843-.044 1.251-.113l3.773 9.502c2.664 6.708 9.047 11.042 16.265 11.042h4.482c2.947 11.604 5.054 23.4 6.317 35.29h-35.921c-4.142 0-7.5 3.357-7.5 7.5s3.358 7.5 7.5 7.5h37.064c.176 3.833.27 7.671.27 11.512v.825c0 19.963-5.499 39.461-15.902 56.385-2.169 3.529-1.067 8.147 2.461 10.317 1.225.753 2.581 1.111 3.92 1.111 2.52 0 4.98-1.27 6.396-3.573 11.857-19.286 18.124-41.5 18.124-64.239v-.825c0-21.989-2.732-43.908-8.12-65.22zm-109.116-145.455c-3.535-2.178-5.918-5.771-6.54-9.867-.719-4.704.959-9.413 4.501-12.608 3.748-3.395 6.671-7.483 8.694-12.163 1.056-2.452 1.842-5.047 2.341-7.698l18.057 15.599c1.362 1.177 3.103 1.824 4.903 1.824l12.62.028 6.03 9.34c1.381 2.14 3.754 3.432 6.301 3.432h27.17c8.133 0 14.75 6.612 14.75 14.74l-.06 7.3h-23.327c-6.678 0-12.964 3.257-16.815 8.713s-4.815 12.47-2.579 18.762l2.206 6.208c-4.342.942-8.212 3.507-10.763 7.264-2.658 3.915-3.592 8.684-2.687 13.235h-21.06l-5.083-35.183c-1.774-12.187-8.578-22.732-18.659-28.926zm-59.041-47.711c8.225 24.874 12.754 56.171 12.754 88.127 0 31.161-4.107 60.695-11.879 85.409-.328 1.043-1.288 1.743-2.388 1.743h-24.477c7.591-25.361 11.744-55.934 11.744-87.152 0-32.372-4.446-63.963-12.565-89.848h24.428c1.085.001 2.043.692 2.383 1.721zm-91.529 244.138v-53.858h11.035v48.059c-3.946 1.456-7.645 3.421-11.035 5.799zm-28.215-245.858c8.607 25.204 13.348 57.028 13.348 89.848 0 31.618-4.418 62.404-12.453 87.152h-23.291c7.591-25.36 11.744-55.933 11.744-87.152 0-32.372-4.446-63.963-12.565-89.848zm55.329 140.429c-4.077-.735-7.978 1.968-8.716 6.043-1.979 10.929-4.521 21.176-7.557 30.527h-22.451c7.591-25.36 11.744-55.933 11.744-87.152 0-32.372-4.446-63.963-12.565-89.848h22.367c8.607 25.205 13.349 57.028 13.349 89.848 0 8.143-.299 16.399-.889 24.541-.299 4.132 2.808 7.724 6.938 8.022.185.014.368.02.55.02 3.896 0 7.187-3.012 7.473-6.958.616-8.501.928-17.122.928-25.625 0-32.372-4.446-63.963-12.565-89.848h23.217c8.607 25.205 13.348 57.029 13.348 89.848 0 31.617-4.418 62.402-12.452 87.152h-23.277c2.608-8.702 4.824-18.033 6.602-27.854.737-4.075-1.969-7.977-6.044-8.716zm-27.114-172.056c0-1.379 1.122-2.5 2.5-2.5h6.035c1.378 0 2.5 1.121 2.5 2.5v16.627h-11.035zm-92.05 32.632c.28-.375.913-1.005 2.006-1.005h22.829c8.607 25.204 13.348 57.028 13.348 89.848 0 31.618-4.418 62.403-12.453 87.152h-22.942c-1.084 0-1.716-.621-1.996-.992-.278-.368-.702-1.142-.407-2.179 7.063-24.868 10.797-53.908 10.797-83.981 0-31.229-4.002-61.193-11.573-86.652-.307-1.039.113-1.819.391-2.191zm-63.062 193.189-.35-7.82c.032-.051.07-.095.101-.147l59.463-100.467c.016 1.361.032 2.721.032 4.087 0 28.707-3.536 56.33-10.227 79.884-1.512 5.322-.466 10.905 2.868 15.319 3.337 4.416 8.427 6.949 13.964 6.949h74.261v65.033c-8.821-12.082-23.081-19.952-39.152-19.952-22.012 0-40.63 14.758-46.512 34.896-31.286-12.796-52.904-43.319-54.448-77.782zm100.961 124.802c-18.449 0-33.458-15.009-33.458-33.457 0-18.449 15.009-33.458 33.458-33.458s33.457 15.009 33.457 33.458c0 18.448-15.009 33.457-33.457 33.457zm81.915 0c-18.449 0-33.458-15.009-33.458-33.457 0-18.449 15.009-33.458 33.458-33.458s33.458 15.009 33.458 33.458c-.001 18.448-15.01 33.457-33.458 33.457zm81.914 0c-18.448 0-33.457-15.009-33.457-33.457 0-18.449 15.009-33.458 33.457-33.458 18.449 0 33.458 15.009 33.458 33.458 0 18.448-15.009 33.457-33.458 33.457zm43.489-54.804c-7.907-16.043-24.427-27.111-43.489-27.111-17.22 0-32.361 9.037-40.957 22.61-8.596-13.573-23.737-22.61-40.958-22.61-.58 0-1.153.024-1.728.044v-45.125h63.981c7.685 0 14.395-4.92 16.698-12.243 8.223-26.151 12.569-57.242 12.569-89.909 0-.693-.014-1.379-.018-2.071l47.43 80.138c.121.205.261.391.397.579l6.019 41.665c2.933 20.313-4.807 40.817-19.944 54.033zm28.27-101.319-4.96-34.333h24.537l13.632 34.333zm56.834 18.854-28.059-70.67c-.425-1.071-.022-1.918.255-2.327s.916-1.096 2.068-1.096h8.71c1.031 0 1.943.619 2.324 1.577l28.059 70.67c.425 1.071.022 1.918-.255 2.327s-.916 1.096-2.068 1.096h-8.711c-1.03 0-1.942-.619-2.323-1.577z"/><path d="m190.043 349.095c-13.854 0-25.124 11.271-25.124 25.124s11.271 25.124 25.124 25.124 25.124-11.271 25.124-25.124-11.271-25.124-25.124-25.124zm0 35.248c-5.583 0-10.124-4.542-10.124-10.124s4.542-10.124 10.124-10.124 10.124 4.542 10.124 10.124-4.542 10.124-10.124 10.124z"/><path d="m271.958 349.095c-13.854 0-25.124 11.271-25.124 25.124s11.271 25.124 25.124 25.124 25.124-11.271 25.124-25.124-11.271-25.124-25.124-25.124zm0 35.248c-5.583 0-10.125-4.542-10.125-10.124s4.542-10.124 10.125-10.124 10.124 4.542 10.124 10.124-4.542 10.124-10.124 10.124z"/><path d="m353.872 349.095c-13.854 0-25.124 11.271-25.124 25.124s11.271 25.124 25.124 25.124 25.125-11.271 25.125-25.124-11.271-25.124-25.125-25.124zm0 35.248c-5.583 0-10.124-4.542-10.124-10.124s4.542-10.124 10.124-10.124 10.125 4.542 10.125 10.124-4.542 10.124-10.125 10.124z"/><path d="m57.86 362.387c0 4.143 3.358 7.5 7.5 7.5h21.64c4.142 0 7.5-3.357 7.5-7.5s-3.358-7.5-7.5-7.5h-21.64c-4.142 0-7.5 3.357-7.5 7.5z"/><path d="m412.402 442.792c4.142 0 7.5-3.357 7.5-7.5s-3.358-7.5-7.5-7.5h-127.346c-4.142 0-7.5 3.357-7.5 7.5s3.358 7.5 7.5 7.5z"/><path d="m463.667 385.22c4.142 0 7.5-3.357 7.5-7.5s-3.358-7.5-7.5-7.5h-26.597c-4.142 0-7.5 3.357-7.5 7.5s3.358 7.5 7.5 7.5z"/><path d="m418.038 138.261 6.972-.647c4.125-.383 7.158-4.037 6.774-8.161-.383-4.124-4.038-7.151-8.161-6.774l-6.972.647c-4.125.383-7.158 4.037-6.774 8.161.361 3.889 3.629 6.808 7.459 6.808.232-.001.466-.013.702-.034z"/></g></g></svg>